Coordinates
version=1
nRows=43
nColumns=12
inDegrees=yes

Units are S.I. units (second, meters, Newtons, ...)
Angles are in degrees

endheader
time	SC_y	SC_z	SC_x	AC_y	AC_z	AC_x	GH_y	GH_z	GH_yy	EL_x	PS_y
       0.0              -21.39          6.798          81.63          47.76          4.809         -2.547         -80.48          84.47          65.82          79.04          133.8
   0.03373              -21.39          6.798          81.63          47.76          4.805         -2.546         -80.44          84.46          65.83          79.04          133.8
   0.06747              -21.39          6.797          81.63          47.76          4.801         -2.545          -80.4          84.45          65.83          79.03          133.8
    0.1012              -21.39          6.797          81.62          47.76          4.797         -2.543         -80.36          84.44          65.84          79.03          133.7
    0.1349               -21.4          6.796          81.62          47.76          4.793         -2.542         -80.32          84.43          65.85          79.03          133.7
    0.1687               -21.4          6.795          81.62          47.76          4.789          -2.54         -80.27          84.41          65.85          79.02          133.7
    0.2024               -21.4          6.795          81.61          47.76          4.784         -2.538         -80.22           84.4          65.86          79.02          133.7
    0.2361              -21.41          6.794          81.61          47.76          4.779         -2.536         -80.17          84.38          65.86          79.01          133.6
    0.2699              -21.41          6.793          81.61          47.76          4.773         -2.534         -80.12          84.37          65.87           79.0          133.6
    0.3036              -21.42          6.793           81.6          47.76          4.767         -2.532         -80.05          84.35          65.88           79.0          133.6
    0.3373              -21.42          6.792           81.6          47.76          4.761          -2.53         -79.99          84.33          65.89          78.99          133.6
    0.3711              -21.42          6.791          81.59          47.76          4.754         -2.527         -79.92          84.31           65.9          78.98          133.5
    0.4048              -21.43           6.79          81.59          47.77          4.746         -2.525         -79.84          84.29          65.91          78.98          133.5
    0.4385              -21.44          6.789          81.58          47.77          4.738         -2.522         -79.76          84.27          65.92          78.97          133.5
    0.4723              -21.44          6.788          81.58          47.77           4.73         -2.519         -79.67          84.24          65.93          78.96          133.4
     0.506              -21.45          6.786          81.57          47.77           4.72         -2.515         -79.58          84.22          65.94          78.95          133.4
    0.5397              -21.46          6.785          81.56          47.77           4.71         -2.511         -79.48          84.19          65.96          78.94          133.3
    0.5735              -21.46          6.784          81.55          47.77          4.699         -2.507         -79.36          84.16          65.97          78.93          133.3
    0.6072              -21.47          6.782          81.55          47.78          4.687         -2.503         -79.24          84.12          65.99          78.92          133.2
    0.6409              -21.48           6.78          81.54          47.78          4.673         -2.498          -79.1          84.08          66.01           78.9          133.2
    0.6747              -21.49          6.778          81.53          47.78          4.659         -2.493         -78.95          84.04          66.03          78.89          133.1
    0.7084               -21.5          6.776          81.51          47.78          4.643         -2.487         -78.79           84.0          66.05          78.87          133.0
    0.7421              -21.52          6.774           81.5          47.79          4.625          -2.48         -78.61          83.94          66.08          78.85          132.9
    0.7759              -21.53          6.771          81.49          47.79          4.605         -2.473         -78.41          83.89           66.1          78.83          132.8
    0.8096              -21.55          6.769          81.47          47.79          4.583         -2.465         -78.19          83.83          66.13          78.81          132.7
    0.8433              -21.56          6.765          81.46           47.8          4.559         -2.456         -77.94          83.76          66.17          78.78          132.6
    0.8771              -21.58          6.762          81.44           47.8          4.532         -2.447         -77.66          83.68           66.2          78.76          132.5
    0.9108               -21.6          6.758          81.42          47.81          4.501         -2.435         -77.35          83.59          66.25          78.72          132.4
    0.9445              -21.63          6.753          81.39          47.81          4.466         -2.423          -77.0          83.49          66.29          78.69          132.2
    0.9783              -21.66          6.748          81.36          47.82          4.427         -2.408         -76.59          83.38          66.35          78.65          132.0
     1.012              -21.69          6.742          81.33          47.82          4.382         -2.392         -76.14          83.25          66.41           78.6          131.8
     1.046              -21.73          6.736           81.3          47.83           4.33         -2.373         -75.61           83.1          66.48          78.55          131.6
     1.079              -21.77          6.728          81.26          47.84           4.27         -2.351          -75.0          82.93          66.56          78.48          131.3
     1.113              -21.82          6.719          81.21          47.85          4.201         -2.326          -74.3          82.73          66.66          78.41          131.0
     1.147              -21.88          6.708          81.15          47.87           4.12         -2.297         -73.47           82.5          66.77          78.33          130.6
     1.181              -21.94          6.696          81.08          47.88          4.024         -2.262          -72.5          82.23           66.9          78.23          130.2
     1.214              -22.02          6.681          81.01           47.9           3.91          -2.22         -71.34           81.9          67.06          78.11          129.6
     1.248              -22.12          6.663          80.91          47.92          3.774         -2.171         -69.96          81.51          67.24          77.97          129.0
     1.282              -22.24          6.641           80.8          47.95          3.609         -2.111         -68.28          81.04          67.47           77.8          128.2
     1.316              -22.38          6.615          80.66          47.98          3.407         -2.037         -66.23          80.46          67.75          77.59          127.3
     1.349              -22.56          6.583          80.48          48.02          3.159         -1.947         -63.71          79.75          68.09          77.34          126.2
     1.383              -22.78          6.542          80.27          48.07          2.849         -1.834         -60.56          78.87          68.51          77.02          124.7
     1.417              -23.06          6.491           80.0          48.14          2.458         -1.692         -56.59          77.75          69.05          76.61          122.9
